<svg width="18" height="18" viewBox="0 0 18 18" fill="none" xmlns="http://www.w3.org/2000/svg">
<path d="M8.99984 5.45835C8.48207 5.45835 8.06234 5.87809 8.06234 6.39585C8.06234 6.74103 7.78252 7.02085 7.43734 7.02085C7.09216 7.02085 6.81234 6.74103 6.81234 6.39585C6.81234 5.18773 7.79172 4.20835 8.99984 4.20835C10.208 4.20835 11.1873 5.18773 11.1873 6.39585C11.1873 7.19864 10.7545 7.89967 10.1126 8.27949C9.9486 8.3765 9.81325 8.48241 9.72507 8.58633C9.63946 8.68721 9.62484 8.75302 9.62484 8.79169V9.83335C9.62484 10.1785 9.34502 10.4584 8.99984 10.4584C8.65466 10.4584 8.37484 10.1785 8.37484 9.83335V8.79169C8.37484 8.37012 8.5594 8.02805 8.772 7.77753C8.98202 7.53004 9.24391 7.34102 9.47606 7.20368C9.75353 7.03951 9.93734 6.73882 9.93734 6.39585C9.93734 5.87809 9.5176 5.45835 8.99984 5.45835Z" fill="white"/>
<path d="M8.99984 13.1667C9.46007 13.1667 9.83317 12.7936 9.83317 12.3334C9.83317 11.8731 9.46007 11.5 8.99984 11.5C8.5396 11.5 8.1665 11.8731 8.1665 12.3334C8.1665 12.7936 8.5396 13.1667 8.99984 13.1667Z" fill="white"/>
<path fill-rule="evenodd" clip-rule="evenodd" d="M8.95202 0.0416872H9.04765C10.9713 0.0416768 12.4788 0.0416687 13.6551 0.19981C14.859 0.361676 15.8091 0.69946 16.5547 1.44513C17.3004 2.19081 17.6382 3.14083 17.8 4.34478C17.9582 5.52102 17.9582 7.02855 17.9582 8.95221V9.04783C17.9582 10.9715 17.9582 12.479 17.8 13.6553C17.6382 14.8592 17.3004 15.8092 16.5547 16.5549C15.8091 17.3006 14.859 17.6384 13.6551 17.8002C12.4788 17.9584 10.9713 17.9584 9.04765 17.9584H8.95203C7.02836 17.9584 5.52083 17.9584 4.34459 17.8002C3.14065 17.6384 2.19063 17.3006 1.44495 16.5549C0.699277 15.8092 0.361493 14.8592 0.199626 13.6553C0.0414856 12.479 0.0414937 10.9715 0.0415041 9.04785V8.9522C0.0414937 7.02855 0.0414856 5.52101 0.199626 4.34478C0.361493 3.14083 0.699277 2.19081 1.44495 1.44513C2.19063 0.69946 3.14065 0.361676 4.34459 0.19981C5.52083 0.0416687 7.02837 0.0416768 8.95202 0.0416872ZM4.51115 1.43866C3.44582 1.58189 2.80355 1.8543 2.32883 2.32902C1.85412 2.80373 1.58171 3.446 1.43848 4.51133C1.29283 5.59465 1.2915 7.01817 1.2915 9.00002C1.2915 10.9819 1.29283 12.4054 1.43848 13.4887C1.58171 14.554 1.85412 15.1963 2.32883 15.671C2.80355 16.1457 3.44582 16.4181 4.51115 16.5614C5.59447 16.707 7.01798 16.7084 8.99984 16.7084C10.9817 16.7084 12.4052 16.707 13.4885 16.5614C14.5539 16.4181 15.1961 16.1457 15.6708 15.671C16.1456 15.1963 16.418 14.554 16.5612 13.4887C16.7068 12.4054 16.7082 10.9819 16.7082 9.00002C16.7082 7.01817 16.7068 5.59465 16.5612 4.51133C16.418 3.446 16.1456 2.80373 15.6708 2.32902C15.1961 1.8543 14.5539 1.58189 13.4885 1.43866C12.4052 1.29302 10.9817 1.29169 8.99984 1.29169C7.01798 1.29169 5.59447 1.29302 4.51115 1.43866Z" fill="white"/>
</svg>
