<svg width="18" height="18" viewBox="0 0 18 18" fill="none" xmlns="http://www.w3.org/2000/svg">
<path fill-rule="evenodd" clip-rule="evenodd" d="M5.87484 6.50002C5.87484 4.77413 7.27395 3.37502 8.99984 3.37502C10.7257 3.37502 12.1248 4.77413 12.1248 6.50002C12.1248 8.22591 10.7257 9.62502 8.99984 9.62502C7.27395 9.62502 5.87484 8.22591 5.87484 6.50002ZM8.99984 4.62502C7.9643 4.62502 7.12484 5.46449 7.12484 6.50002C7.12484 7.53555 7.9643 8.37502 8.99984 8.37502C10.0354 8.37502 10.8748 7.53555 10.8748 6.50002C10.8748 5.46449 10.0354 4.62502 8.99984 4.62502Z" fill="white"/>
<path fill-rule="evenodd" clip-rule="evenodd" d="M0.0415039 9.00002C0.0415039 4.05247 4.05229 0.041687 8.99984 0.041687C13.9474 0.041687 17.9582 4.05247 17.9582 9.00002C17.9582 13.9476 13.9474 17.9584 8.99984 17.9584C4.05229 17.9584 0.0415039 13.9476 0.0415039 9.00002ZM8.99984 1.29169C4.74264 1.29169 1.2915 4.74283 1.2915 9.00002C1.2915 11.1213 2.14839 13.0425 3.53492 14.4363C3.68525 13.6254 3.98062 12.8608 4.57348 12.2459C5.46027 11.3263 6.87831 10.875 8.9998 10.875C11.1213 10.875 12.5393 11.3263 13.4261 12.2459C14.019 12.8608 14.3144 13.6254 14.4647 14.4364C15.8513 13.0426 16.7082 11.1214 16.7082 9.00002C16.7082 4.74283 13.257 1.29169 8.99984 1.29169ZM13.3279 15.3795C13.243 14.3696 13.0237 13.6294 12.5263 13.1136C11.9851 12.5523 10.9823 12.125 8.9998 12.125C7.01733 12.125 6.01452 12.5523 5.47329 13.1136C4.97589 13.6294 4.7566 14.3695 4.67169 15.3795C5.90554 16.2182 7.39545 16.7084 8.99984 16.7084C10.6042 16.7084 12.0941 16.2182 13.3279 15.3795Z" fill="white"/>
</svg>
